# xmcd CD database file
#
# Track frame offsets:
#	150
#	13694
#	27760
#	41706
#	55941
#	69816
#	83097
#	96142
#	105686
#	116850
#	125111
#	138770
#	151605
#	167825
#	180877
#	193155
#	207572
#	224641
#
# Disc length: 3198 seconds
#
# Revision: 0
# Processed by: cddbd v1.5.2PL0 Copyright (c) Steve Scherf et al.
# Submitted via: CDex 1.51
#
DISCID=f90c7c12
DTITLE=Simply The Best - Jazz
DYEAR=2003
DGENRE=Jazz
TTITLE0=Dinah Washington - Mad About The Boy
TTITLE1=Nat King Cole Trio - It's Only A Paper Moon
TTITLE2=Coleman Hawkins - It's The Talk Of The Town
TTITLE3=Ella Fitzgerald and Louis Armstrong - Can Anyone Explain
TTITLE4=Frank Sinatra - Don't Forget Tonight Tomorrow
TTITLE5=Julie London - Cry Me A River
TTITLE6=Bud Powell - I Should Care
TTITLE7=Andy Williams - Gone With The Wind
TTITLE8=Ike Cole - I'm In The Mood For Love
TTITLE9=Kay Starr - I've Got The World On A String
TTITLE10=Ella Fitzgerald - Dream A Little Dream Of Me
TTITLE11=Rosemary Clooney - Half As Much
TTITLE12=Sarah Vaughan - Goodnight Sweetheart
TTITLE13=Johnny Mercer - Glow Worm
TTITLE14=Doris Day - Bewitched, Bothered And Bewildered
TTITLE15=Mel Tormé - Blue Moon
TTITLE16=Sonny Stitt Quartet - Sunset
TTITLE17=Louis Armstrong - La Vie En Rose
EXTD=YEAR: 2003
EXTT0=
EXTT1=
EXTT2=
EXTT3=
EXTT4=
EXTT5=
EXTT6=
EXTT7=
EXTT8=
EXTT9=
EXTT10=
EXTT11=
EXTT12=
EXTT13=
EXTT14=
EXTT15=
EXTT16=
EXTT17=
PLAYORDER=
